<mxfile host="app.diagrams.net" agent="Mozilla/5.0 (X11; Linux x86_64) AppleWebKit/537.36 (KHTML, like Gecko) Chrome/131.0.0.0 Safari/537.36" version="26.0.4">
  <diagram name="Page-1" id="yms-EdbSCjYSapsheQhp">
    <mxGraphModel dx="1195" dy="635" grid="1" gridSize="10" guides="1" tooltips="1" connect="1" arrows="1" fold="1" page="1" pageScale="1" pageWidth="850" pageHeight="1100" math="0" shadow="0">
      <root>
        <mxCell id="0" />
        <mxCell id="1" parent="0" />
        <mxCell id="FA_bKZR68y2WRZR6aytJ-9" style="edgeStyle=orthogonalEdgeStyle;rounded=0;orthogonalLoop=1;jettySize=auto;html=1;entryX=0;entryY=0.5;entryDx=0;entryDy=0;curved=1;" parent="1" source="LHcCrd6WPen3PEoSXZ4B-1" target="FA_bKZR68y2WRZR6aytJ-8" edge="1">
          <mxGeometry relative="1" as="geometry" />
        </mxCell>
        <mxCell id="FA_bKZR68y2WRZR6aytJ-18" style="edgeStyle=orthogonalEdgeStyle;rounded=0;orthogonalLoop=1;jettySize=auto;html=1;entryX=0;entryY=0.5;entryDx=0;entryDy=0;curved=1;" parent="1" source="LHcCrd6WPen3PEoSXZ4B-1" target="FA_bKZR68y2WRZR6aytJ-17" edge="1">
          <mxGeometry relative="1" as="geometry" />
        </mxCell>
        <mxCell id="LHcCrd6WPen3PEoSXZ4B-1" value="Logged User" style="shape=umlActor;html=1;verticalLabelPosition=bottom;verticalAlign=top;align=center;" parent="1" vertex="1">
          <mxGeometry x="130" y="282.5" width="30" height="60" as="geometry" />
        </mxCell>
        <mxCell id="FA_bKZR68y2WRZR6aytJ-7" value="Watchlist" style="swimlane;whiteSpace=wrap;html=1;" parent="1" vertex="1">
          <mxGeometry x="230" y="110" width="260" height="405" as="geometry" />
        </mxCell>
        <mxCell id="FA_bKZR68y2WRZR6aytJ-8" value="enable notification" style="ellipse;whiteSpace=wrap;html=1;" parent="FA_bKZR68y2WRZR6aytJ-7" vertex="1">
          <mxGeometry x="70" y="162.5" width="120" height="80" as="geometry" />
        </mxCell>
        <mxCell id="FA_bKZR68y2WRZR6aytJ-15" style="edgeStyle=orthogonalEdgeStyle;rounded=0;orthogonalLoop=1;jettySize=auto;html=1;entryX=0.5;entryY=1;entryDx=0;entryDy=0;dashed=1;" parent="FA_bKZR68y2WRZR6aytJ-7" source="FA_bKZR68y2WRZR6aytJ-12" target="FA_bKZR68y2WRZR6aytJ-8" edge="1">
          <mxGeometry relative="1" as="geometry" />
        </mxCell>
        <mxCell id="FA_bKZR68y2WRZR6aytJ-16" value="&amp;lt;&amp;lt;include&amp;gt;&amp;gt;" style="edgeLabel;html=1;align=center;verticalAlign=middle;resizable=0;points=[];" parent="FA_bKZR68y2WRZR6aytJ-15" vertex="1" connectable="0">
          <mxGeometry x="-0.0786" relative="1" as="geometry">
            <mxPoint as="offset" />
          </mxGeometry>
        </mxCell>
        <mxCell id="FA_bKZR68y2WRZR6aytJ-20" style="edgeStyle=orthogonalEdgeStyle;rounded=0;orthogonalLoop=1;jettySize=auto;html=1;curved=1;" parent="FA_bKZR68y2WRZR6aytJ-7" source="FA_bKZR68y2WRZR6aytJ-12" edge="1">
          <mxGeometry relative="1" as="geometry">
            <mxPoint x="-70" y="200" as="targetPoint" />
            <Array as="points">
              <mxPoint x="-70" y="335" />
            </Array>
          </mxGeometry>
        </mxCell>
        <mxCell id="FA_bKZR68y2WRZR6aytJ-12" value="send notification" style="ellipse;whiteSpace=wrap;html=1;" parent="FA_bKZR68y2WRZR6aytJ-7" vertex="1">
          <mxGeometry x="70" y="295" width="120" height="80" as="geometry" />
        </mxCell>
        <mxCell id="FA_bKZR68y2WRZR6aytJ-34" style="edgeStyle=orthogonalEdgeStyle;rounded=0;orthogonalLoop=1;jettySize=auto;html=1;dashed=1;" parent="FA_bKZR68y2WRZR6aytJ-7" source="FA_bKZR68y2WRZR6aytJ-17" target="FA_bKZR68y2WRZR6aytJ-8" edge="1">
          <mxGeometry relative="1" as="geometry" />
        </mxCell>
        <mxCell id="FA_bKZR68y2WRZR6aytJ-35" value="&amp;lt;&amp;lt;include&amp;gt;&amp;gt;" style="edgeLabel;html=1;align=center;verticalAlign=middle;resizable=0;points=[];" parent="FA_bKZR68y2WRZR6aytJ-34" vertex="1" connectable="0">
          <mxGeometry x="-0.0745" y="2" relative="1" as="geometry">
            <mxPoint as="offset" />
          </mxGeometry>
        </mxCell>
        <mxCell id="FA_bKZR68y2WRZR6aytJ-17" value="disable notification" style="ellipse;whiteSpace=wrap;html=1;" parent="FA_bKZR68y2WRZR6aytJ-7" vertex="1">
          <mxGeometry x="70" y="40" width="120" height="80" as="geometry" />
        </mxCell>
        <mxCell id="FA_bKZR68y2WRZR6aytJ-13" style="edgeStyle=orthogonalEdgeStyle;rounded=0;orthogonalLoop=1;jettySize=auto;html=1;entryX=1;entryY=0.5;entryDx=0;entryDy=0;curved=1;" parent="1" source="FA_bKZR68y2WRZR6aytJ-10" target="FA_bKZR68y2WRZR6aytJ-12" edge="1">
          <mxGeometry relative="1" as="geometry" />
        </mxCell>
        <mxCell id="FA_bKZR68y2WRZR6aytJ-10" value="Notification system" style="shape=umlActor;verticalLabelPosition=bottom;verticalAlign=top;html=1;outlineConnect=0;" parent="1" vertex="1">
          <mxGeometry x="550" y="282.5" width="30" height="60" as="geometry" />
        </mxCell>
        <mxCell id="FA_bKZR68y2WRZR6aytJ-11" style="edgeStyle=orthogonalEdgeStyle;rounded=0;orthogonalLoop=1;jettySize=auto;html=1;curved=1;" parent="1" source="FA_bKZR68y2WRZR6aytJ-8" target="FA_bKZR68y2WRZR6aytJ-10" edge="1">
          <mxGeometry relative="1" as="geometry" />
        </mxCell>
        <mxCell id="FA_bKZR68y2WRZR6aytJ-21" style="edgeStyle=orthogonalEdgeStyle;rounded=0;orthogonalLoop=1;jettySize=auto;html=1;entryX=0;entryY=0.5;entryDx=0;entryDy=0;curved=1;" parent="1" source="FA_bKZR68y2WRZR6aytJ-23" target="FA_bKZR68y2WRZR6aytJ-25" edge="1">
          <mxGeometry relative="1" as="geometry" />
        </mxCell>
        <mxCell id="FA_bKZR68y2WRZR6aytJ-22" style="edgeStyle=orthogonalEdgeStyle;rounded=0;orthogonalLoop=1;jettySize=auto;html=1;entryX=0;entryY=0.5;entryDx=0;entryDy=0;curved=1;" parent="1" source="FA_bKZR68y2WRZR6aytJ-23" target="FA_bKZR68y2WRZR6aytJ-30" edge="1">
          <mxGeometry relative="1" as="geometry" />
        </mxCell>
        <mxCell id="FA_bKZR68y2WRZR6aytJ-23" value="Logged User" style="shape=umlActor;html=1;verticalLabelPosition=bottom;verticalAlign=top;align=center;" parent="1" vertex="1">
          <mxGeometry x="130" y="732.5" width="30" height="60" as="geometry" />
        </mxCell>
        <mxCell id="FA_bKZR68y2WRZR6aytJ-24" value="Watchlist" style="swimlane;whiteSpace=wrap;html=1;" parent="1" vertex="1">
          <mxGeometry x="230" y="560" width="320" height="405" as="geometry" />
        </mxCell>
        <mxCell id="FA_bKZR68y2WRZR6aytJ-25" value="enable notification" style="ellipse;whiteSpace=wrap;html=1;" parent="FA_bKZR68y2WRZR6aytJ-24" vertex="1">
          <mxGeometry x="70" y="162.5" width="120" height="80" as="geometry" />
        </mxCell>
        <mxCell id="FA_bKZR68y2WRZR6aytJ-28" style="edgeStyle=orthogonalEdgeStyle;rounded=0;orthogonalLoop=1;jettySize=auto;html=1;curved=1;" parent="FA_bKZR68y2WRZR6aytJ-24" source="FA_bKZR68y2WRZR6aytJ-29" edge="1">
          <mxGeometry relative="1" as="geometry">
            <mxPoint x="-70" y="200" as="targetPoint" />
            <Array as="points">
              <mxPoint x="-70" y="335" />
            </Array>
          </mxGeometry>
        </mxCell>
        <mxCell id="FA_bKZR68y2WRZR6aytJ-29" value="send notification" style="ellipse;whiteSpace=wrap;html=1;" parent="FA_bKZR68y2WRZR6aytJ-24" vertex="1">
          <mxGeometry x="70" y="295" width="120" height="80" as="geometry" />
        </mxCell>
        <mxCell id="FA_bKZR68y2WRZR6aytJ-36" style="edgeStyle=orthogonalEdgeStyle;rounded=0;orthogonalLoop=1;jettySize=auto;html=1;entryX=0.5;entryY=0;entryDx=0;entryDy=0;dashed=1;" parent="FA_bKZR68y2WRZR6aytJ-24" source="FA_bKZR68y2WRZR6aytJ-30" target="FA_bKZR68y2WRZR6aytJ-25" edge="1">
          <mxGeometry relative="1" as="geometry" />
        </mxCell>
        <mxCell id="FA_bKZR68y2WRZR6aytJ-37" value="&amp;lt;&amp;lt;include&amp;gt;&amp;gt;" style="edgeLabel;html=1;align=center;verticalAlign=middle;resizable=0;points=[];" parent="FA_bKZR68y2WRZR6aytJ-36" vertex="1" connectable="0">
          <mxGeometry x="0.0824" relative="1" as="geometry">
            <mxPoint as="offset" />
          </mxGeometry>
        </mxCell>
        <mxCell id="FA_bKZR68y2WRZR6aytJ-30" value="disable notification" style="ellipse;whiteSpace=wrap;html=1;" parent="FA_bKZR68y2WRZR6aytJ-24" vertex="1">
          <mxGeometry x="70" y="40" width="120" height="80" as="geometry" />
        </mxCell>
        <mxCell id="FA_bKZR68y2WRZR6aytJ-41" style="edgeStyle=orthogonalEdgeStyle;rounded=0;orthogonalLoop=1;jettySize=auto;html=1;entryX=1;entryY=0.5;entryDx=0;entryDy=0;curved=1;" parent="FA_bKZR68y2WRZR6aytJ-24" source="FA_bKZR68y2WRZR6aytJ-38" target="FA_bKZR68y2WRZR6aytJ-29" edge="1">
          <mxGeometry relative="1" as="geometry">
            <Array as="points">
              <mxPoint x="240" y="333" />
              <mxPoint x="210" y="333" />
              <mxPoint x="210" y="335" />
            </Array>
          </mxGeometry>
        </mxCell>
        <mxCell id="FA_bKZR68y2WRZR6aytJ-42" value="&amp;lt;&amp;lt;include&amp;gt;&amp;gt;" style="edgeLabel;html=1;align=center;verticalAlign=middle;resizable=0;points=[];" parent="FA_bKZR68y2WRZR6aytJ-41" vertex="1" connectable="0">
          <mxGeometry x="-0.1919" y="1" relative="1" as="geometry">
            <mxPoint as="offset" />
          </mxGeometry>
        </mxCell>
        <mxCell id="FA_bKZR68y2WRZR6aytJ-44" style="edgeStyle=orthogonalEdgeStyle;rounded=0;orthogonalLoop=1;jettySize=auto;html=1;entryX=0.5;entryY=1;entryDx=0;entryDy=0;curved=1;dashed=1;" parent="FA_bKZR68y2WRZR6aytJ-24" source="FA_bKZR68y2WRZR6aytJ-38" target="FA_bKZR68y2WRZR6aytJ-25" edge="1">
          <mxGeometry relative="1" as="geometry" />
        </mxCell>
        <mxCell id="FA_bKZR68y2WRZR6aytJ-45" value="&amp;lt;&amp;lt;include&amp;gt;&amp;gt;" style="edgeLabel;html=1;align=center;verticalAlign=middle;resizable=0;points=[];" parent="FA_bKZR68y2WRZR6aytJ-44" vertex="1" connectable="0">
          <mxGeometry x="-0.0576" y="-5" relative="1" as="geometry">
            <mxPoint as="offset" />
          </mxGeometry>
        </mxCell>
        <mxCell id="FA_bKZR68y2WRZR6aytJ-38" value="monitor price" style="ellipse;whiteSpace=wrap;html=1;" parent="FA_bKZR68y2WRZR6aytJ-24" vertex="1">
          <mxGeometry x="195" y="233" width="120" height="80" as="geometry" />
        </mxCell>
        <mxCell id="FA_bKZR68y2WRZR6aytJ-40" style="edgeStyle=orthogonalEdgeStyle;rounded=0;orthogonalLoop=1;jettySize=auto;html=1;entryX=1;entryY=0.5;entryDx=0;entryDy=0;curved=1;" parent="1" source="FA_bKZR68y2WRZR6aytJ-32" target="FA_bKZR68y2WRZR6aytJ-38" edge="1">
          <mxGeometry relative="1" as="geometry" />
        </mxCell>
        <mxCell id="FA_bKZR68y2WRZR6aytJ-32" value="Notification system" style="shape=umlActor;verticalLabelPosition=bottom;verticalAlign=top;html=1;outlineConnect=0;" parent="1" vertex="1">
          <mxGeometry x="620" y="732.5" width="30" height="60" as="geometry" />
        </mxCell>
        <mxCell id="FA_bKZR68y2WRZR6aytJ-39" style="edgeStyle=orthogonalEdgeStyle;rounded=0;orthogonalLoop=1;jettySize=auto;html=1;" parent="1" source="FA_bKZR68y2WRZR6aytJ-25" target="FA_bKZR68y2WRZR6aytJ-32" edge="1">
          <mxGeometry relative="1" as="geometry" />
        </mxCell>
      </root>
    </mxGraphModel>
  </diagram>
</mxfile>
